<svg width="403" height="258" viewBox="0 0 403 258" fill="none" xmlns="http://www.w3.org/2000/svg">
<g clip-path="url(#clip0_3_3)">
<path d="M118.833 257.674V237.665H122.833L127.588 251.831C128.028 253.15 128.345 254.136 128.547 254.791C128.775 254.064 129.131 252.993 129.617 251.582L134.425 237.663H138.001V257.671H135.439V240.925L129.602 257.671H127.205L121.395 240.637V257.671H118.833V257.674ZM151.47 255.883C150.558 256.656 149.677 257.203 148.833 257.522C147.989 257.841 147.081 258 146.113 258C144.515 258 143.287 257.611 142.428 256.833C141.569 256.052 141.14 255.059 141.14 253.851C141.14 253.14 141.303 252.493 141.628 251.906C141.95 251.321 142.377 250.85 142.901 250.492C143.425 250.139 144.017 249.868 144.677 249.687C145.162 249.559 145.893 249.436 146.87 249.317C148.862 249.081 150.327 248.8 151.269 248.472C151.278 248.133 151.283 247.918 151.283 247.829C151.283 246.826 151.05 246.12 150.585 245.712C149.954 245.156 149.017 244.881 147.775 244.881C146.616 244.881 145.759 245.084 145.206 245.487C144.653 245.891 144.245 246.609 143.979 247.636L141.567 247.307C141.785 246.278 142.147 245.449 142.649 244.818C143.151 244.185 143.879 243.697 144.828 243.356C145.776 243.015 146.878 242.844 148.129 242.844C149.381 242.844 150.381 242.991 151.157 243.281C151.933 243.573 152.506 243.941 152.87 244.381C153.234 244.82 153.491 245.379 153.636 246.05C153.719 246.471 153.76 247.225 153.76 248.317V251.594C153.76 253.877 153.811 255.323 153.918 255.927C154.025 256.531 154.231 257.113 154.541 257.667H151.965C151.71 257.157 151.545 256.562 151.472 255.878L151.47 255.883ZM151.264 250.398C150.369 250.76 149.027 251.069 147.237 251.326C146.223 251.471 145.504 251.633 145.085 251.816C144.665 251.997 144.34 252.263 144.112 252.614C143.884 252.964 143.77 253.353 143.77 253.781C143.77 254.436 144.02 254.982 144.517 255.419C145.014 255.857 145.745 256.074 146.703 256.074C147.661 256.074 148.498 255.866 149.238 255.451C149.978 255.037 150.521 254.469 150.868 253.752C151.133 253.196 151.266 252.379 151.266 251.294V250.395L151.264 250.398ZM167.023 257.674V255.845C166.101 257.285 164.745 258.002 162.955 258.002C161.793 258.002 160.728 257.683 159.755 257.046C158.782 256.41 158.027 255.521 157.494 254.38C156.96 253.237 156.693 251.925 156.693 250.444C156.693 248.962 156.936 247.684 157.421 246.505C157.904 245.328 158.632 244.424 159.6 243.796C160.568 243.167 161.65 242.853 162.848 242.853C163.724 242.853 164.505 243.039 165.191 243.409C165.876 243.776 166.434 244.257 166.863 244.849V237.672H169.316V257.681H167.028L167.023 257.674ZM159.226 250.441C159.226 252.297 159.619 253.684 160.403 254.602C161.189 255.521 162.115 255.98 163.185 255.98C164.255 255.98 165.179 255.54 165.931 254.663C166.686 253.786 167.062 252.444 167.062 250.642C167.062 248.658 166.679 247.203 165.912 246.275C165.145 245.347 164.199 244.883 163.076 244.883C161.953 244.883 161.062 245.328 160.33 246.22C159.595 247.114 159.226 248.518 159.226 250.439V250.441ZM183.149 253.005L185.698 253.319C185.296 254.803 184.551 255.953 183.464 256.775C182.377 257.592 180.99 258.002 179.299 258.002C177.171 258.002 175.483 257.35 174.236 256.043C172.989 254.738 172.365 252.906 172.365 250.55C172.365 248.194 172.993 246.217 174.255 244.871C175.517 243.523 177.152 242.848 179.16 242.848C181.169 242.848 182.695 243.511 183.93 244.83C185.162 246.149 185.779 248.005 185.779 250.398C185.779 250.543 185.774 250.76 185.764 251.053H174.912C175.005 252.645 175.456 253.863 176.269 254.711C177.081 255.557 178.095 255.98 179.311 255.98C180.216 255.98 180.987 255.743 181.628 255.269C182.266 254.796 182.773 254.042 183.149 253.003V253.005ZM175.053 249.035H183.178C183.069 247.814 182.758 246.901 182.246 246.292C181.46 245.345 180.441 244.874 179.189 244.874C178.057 244.874 177.106 245.248 176.334 246.004C175.563 246.761 175.136 247.771 175.053 249.035ZM196.606 240.49V237.667H199.073V240.49H196.606ZM196.606 257.674V243.177H199.073V257.674H196.606ZM202.826 257.674V243.177H205.046V245.238C206.116 243.646 207.659 242.848 209.677 242.848C210.553 242.848 211.358 243.006 212.096 243.32C212.831 243.634 213.382 244.045 213.745 244.555C214.109 245.064 214.366 245.669 214.512 246.369C214.602 246.824 214.648 247.621 214.648 248.759V257.671H212.181V248.854C212.181 247.853 212.086 247.106 211.894 246.609C211.703 246.113 211.361 245.717 210.873 245.422C210.383 245.125 209.813 244.98 209.155 244.98C208.105 244.98 207.198 245.311 206.436 245.975C205.674 246.64 205.293 247.899 205.293 249.755V257.671H202.826V257.674ZM231.15 257.674V240.026H224.531V237.665H240.453V240.026H233.808V257.674H231.152H231.15ZM241.839 240.49V237.667H244.306V240.49H241.839ZM241.839 257.674V243.177H244.306V257.674H241.839ZM250.33 257.674H248.042V237.665H250.509V244.801C251.55 243.499 252.879 242.848 254.495 242.848C255.393 242.848 256.237 243.03 257.037 243.387C257.836 243.747 258.493 244.252 259.01 244.903C259.524 245.553 259.932 246.338 260.223 247.256C260.514 248.174 260.662 249.158 260.662 250.204C260.662 252.689 260.046 254.61 258.811 255.965C257.578 257.321 256.099 257.998 254.371 257.998C252.644 257.998 251.307 257.282 250.33 255.854V257.669V257.674ZM250.305 250.316C250.305 252.053 250.543 253.31 251.019 254.083C251.795 255.347 252.845 255.98 254.17 255.98C255.249 255.98 256.181 255.516 256.965 254.581C257.751 253.648 258.144 252.258 258.144 250.412C258.144 248.566 257.768 247.123 257.013 246.222C256.261 245.323 255.349 244.874 254.279 244.874C253.209 244.874 252.27 245.337 251.484 246.27C250.698 247.203 250.308 248.551 250.308 250.318L250.305 250.316ZM273.624 253.005L276.174 253.319C275.771 254.803 275.026 255.953 273.939 256.775C272.853 257.592 271.465 258.002 269.774 258.002C267.646 258.002 265.958 257.35 264.711 256.043C263.464 254.738 262.84 252.906 262.84 250.55C262.84 248.194 263.469 246.217 264.73 244.871C265.992 243.523 267.627 242.848 269.636 242.848C271.644 242.848 273.17 243.511 274.405 244.83C275.638 246.149 276.254 248.005 276.254 250.398C276.254 250.543 276.249 250.76 276.242 251.053H265.39C265.482 252.645 265.934 253.863 266.746 254.711C267.559 255.557 268.573 255.98 269.786 255.98C270.691 255.98 271.462 255.743 272.103 255.269C272.741 254.796 273.248 254.042 273.622 253.003L273.624 253.005ZM265.528 249.035H273.653C273.544 247.814 273.231 246.901 272.722 246.292C271.936 245.345 270.917 244.874 269.665 244.874C268.532 244.874 267.581 245.248 266.809 246.004C266.038 246.761 265.611 247.771 265.528 249.035ZM284.655 255.477L285.009 257.647C284.315 257.792 283.694 257.865 283.146 257.865C282.251 257.865 281.557 257.722 281.065 257.442C280.572 257.159 280.225 256.789 280.024 256.328C279.825 255.869 279.723 254.902 279.723 253.428V245.091H277.913V243.177H279.723V239.589L282.176 238.114V243.177H284.655V245.091H282.176V253.566C282.176 254.267 282.217 254.716 282.304 254.917C282.389 255.115 282.532 255.274 282.729 255.393C282.923 255.511 283.204 255.571 283.571 255.571C283.845 255.571 284.206 255.538 284.653 255.475L284.655 255.477Z" fill="#5E1B18"/>
<path d="M31.9238 186.845C31.9238 192.087 32.2804 193.771 33.5298 194.75C34.4201 195.552 36.7394 195.905 40.308 195.905V198.126H15.3372V195.905C19.1703 195.905 21.3124 195.463 22.2052 194.576C23.3648 193.595 23.6317 191.819 23.6317 186.845V135.859C7.67103 136.038 5.08491 138.08 2.85542 152.56L0.00244141 152.381L1.60845 133.73H54.0416L55.6476 152.381L52.7946 152.56C50.4754 138.082 47.979 136.038 31.9286 135.859V186.845H31.9238ZM102.824 197.947C99.3447 198.481 95.4219 198.834 93.6388 198.834C90.9629 198.834 90.2497 197.415 89.8931 191.466C88.4666 193.063 87.3069 194.039 85.5238 195.284C81.601 198.126 78.4787 199.102 73.9324 199.102C70.0096 199.102 67.0668 198.215 64.8373 196.35C62.4283 194.218 60.9145 190.664 60.9145 186.935C60.9145 179.92 65.3735 175.386 74.0246 173.434C78.6607 172.368 83.3889 171.745 89.8955 171.302V165.708C89.8955 161.622 89.5389 159.49 88.6461 157.622C87.4865 155.315 84.9901 154.162 81.3341 154.162C75.4486 154.162 72.4161 156.825 72.0595 162.335C71.9722 164.198 71.7927 164.819 71.0794 165.355C70.4535 165.798 69.2963 166.063 67.9572 166.063C64.9247 166.063 63.5879 165.266 63.5879 163.4C63.5879 160.203 65.9072 157.004 69.6529 154.872C73.0396 153.007 77.4113 152.031 82.6708 152.031C88.3768 152.031 92.4816 153.362 94.6189 155.938C96.402 158.159 97.205 161.09 97.205 165.974C97.205 166.153 97.146 169.144 97.0279 174.946L96.9382 183.383L96.8484 187.471C96.8484 191.202 97.2948 194.399 97.8285 195.11C98.3646 195.818 99.4345 196.086 102.821 196.086V197.952L102.824 197.947ZM89.8906 173.344C81.9552 174.055 78.4763 174.768 74.9101 176.541C70.9872 178.407 68.9348 181.962 68.9348 186.667C68.9348 192.266 71.9673 196.084 76.4263 196.084C80.8853 196.084 85.6112 193.421 87.8407 189.598C89.2671 187.114 89.8906 183.38 89.8906 177.52V173.344ZM122.176 161.619C125.475 155.312 130.468 152.028 136.979 152.028C143.491 152.028 147.77 155.578 149.017 162.332C152.763 155.138 157.399 152.028 164.265 152.028C168.634 152.028 172.113 153.447 174.342 156.115C176.305 158.599 177.108 161.798 177.108 167.839V187.027C177.108 195.286 177.554 195.997 183.617 196.176V198.128H163.284V196.176C169.349 195.997 169.793 195.289 169.793 187.027V169.35C169.793 163.4 169.437 160.911 168.098 158.601C166.848 156.293 164.798 155.317 161.319 155.317C158.2 155.317 155.434 157.006 153.027 160.559C150.621 163.843 149.641 167.042 149.641 171.305V187.027C149.641 195.286 150.087 195.997 156.15 196.176V198.128H135.907V196.176C141.882 195.997 142.329 195.289 142.329 187.027V168.195C142.329 159.58 139.653 155.315 134.303 155.315C130.914 155.315 127.882 157.004 125.385 160.377C123.156 163.311 122.263 166.15 122.263 169.968V187.024C122.263 195.373 122.71 195.994 128.682 196.173V198.126H108.44V196.173C114.505 195.994 114.949 195.376 114.949 187.024V163.219C114.949 156.554 113.969 155.223 108.796 155.223V153.27L122.171 152.294V161.622L122.176 161.619ZM231.598 197.947C228.122 198.481 224.196 198.834 222.413 198.834C219.737 198.834 219.024 197.415 218.67 191.466C217.241 193.063 216.081 194.039 214.301 195.284C210.376 198.126 207.258 199.102 202.707 199.102C198.784 199.102 195.841 198.215 193.612 196.35C191.203 194.218 189.687 190.664 189.687 186.935C189.687 179.92 194.143 175.386 202.797 173.434C207.433 172.368 212.161 171.745 218.67 171.302V165.708C218.67 161.622 218.311 159.49 217.421 157.622C216.261 155.315 213.762 154.162 210.109 154.162C204.223 154.162 201.191 156.825 200.834 162.335C200.744 164.198 200.565 164.819 199.854 165.355C199.226 165.798 198.068 166.063 196.732 166.063C193.699 166.063 192.362 165.266 192.362 163.4C192.362 160.203 194.682 157.004 198.425 154.872C201.814 153.007 206.186 152.031 211.445 152.031C217.151 152.031 221.254 153.362 223.393 155.938C225.177 158.159 225.98 161.09 225.98 165.974C225.98 166.153 225.921 169.144 225.802 174.946L225.713 183.383L225.623 187.471C225.623 191.202 226.069 194.399 226.603 195.11C227.139 195.818 228.209 196.086 231.596 196.086V197.952L231.598 197.947ZM218.67 173.344C210.73 174.055 207.256 174.768 203.687 176.541C199.764 178.407 197.714 181.962 197.714 186.667C197.714 192.266 200.747 196.084 205.203 196.084C209.66 196.084 214.391 193.421 216.618 189.598C218.044 187.114 218.67 183.38 218.67 177.52V173.344ZM239.538 184.093H242.304C242.661 188.269 243.284 190.398 244.8 192.353C247.117 195.55 250.419 197.147 254.519 197.147C260.582 197.147 264.24 194.039 264.24 188.798C264.24 186.756 263.437 184.801 262.1 183.646C260.494 182.314 260.227 182.225 252.112 178.673C242.484 174.497 239.538 171.3 239.538 165.261C239.538 162.151 240.431 159.133 241.945 157.091C244.354 153.894 248.546 152.028 253.005 152.028C255.322 152.028 256.479 152.205 261.297 153.094C262.008 153.181 262.632 153.27 263.17 153.27C264.24 153.27 265.667 153.094 267.452 152.647L267.003 166.682H264.061C263.881 158.775 259.958 154.07 253.447 154.07C247.918 154.07 244.352 157.18 244.352 161.975C244.352 164.017 245.152 165.616 246.761 166.771C248.454 168.013 250.145 168.9 256.035 171.389C262.008 173.876 264.238 175.207 266.29 177.428C268.163 179.47 269.233 182.401 269.233 185.867C269.233 194.039 263.791 199.278 255.409 199.278C252.915 199.278 251.756 199.1 246.494 198.213C245.244 198.034 244.175 197.945 243.194 197.945C242.214 197.945 240.965 198.034 239.182 198.302L239.538 184.091V184.093ZM290.191 161.53C294.383 154.691 298.752 152.028 306.064 152.028C312.576 152.028 316.945 154.247 319.082 158.422C320.152 160.641 320.691 164.374 320.691 169.258V187.024C320.691 195.284 321.135 195.994 327.112 196.173V198.126H306.867V196.173C312.93 195.994 313.379 195.376 313.379 187.024V169.169C313.379 164.64 312.93 161.354 311.95 159.577C310.526 156.733 307.937 155.312 304.104 155.312C300.535 155.312 297.413 156.554 295.276 158.775C293.49 160.641 291.977 163.306 291.084 166.059C290.46 168.011 290.191 169.79 290.191 172.723V187.024C290.191 195.373 290.64 195.994 296.613 196.173V198.126H276.37V196.173C282.435 195.994 282.879 195.376 282.879 187.024V143.769C282.879 136.217 282.525 135.772 276.37 135.683V133.73L290.64 133.02C290.281 139.772 290.191 143.056 290.191 150.786V161.532V161.53ZM346.824 152.294C346.554 157.446 346.285 165.174 346.285 168.903V187.024C346.285 195.284 346.734 195.994 352.707 196.173V198.126H332.377V196.173C338.529 195.994 338.973 195.286 338.973 187.024V163.309C338.973 158.867 338.619 156.823 337.639 156.025C336.923 155.402 335.499 155.225 332.377 155.225V153.273L346.824 152.296V152.294ZM342.362 133.464C345.13 133.464 347.355 135.683 347.355 138.438C347.355 141.193 345.13 143.5 342.362 143.5C339.594 143.5 337.28 141.28 337.28 138.438C337.28 135.596 339.509 133.464 342.362 133.464ZM373.131 152.294C372.862 157.446 372.595 165.174 372.595 168.903V187.024C372.595 195.284 373.044 195.994 379.017 196.173V198.126H358.687V196.173C364.839 195.994 365.283 195.286 365.283 187.024V163.309C365.283 158.867 364.929 156.823 363.949 156.025C363.233 155.402 361.809 155.225 358.687 155.225V153.273L373.134 152.296L373.131 152.294ZM368.672 133.464C371.44 133.464 373.665 135.683 373.665 138.438C373.665 141.193 371.44 143.5 368.672 143.5C365.904 143.5 363.59 141.28 363.59 138.438C363.59 135.596 365.819 133.464 368.672 133.464ZM403 140.755C403 146.187 398.718 150.453 393.15 150.453C387.583 150.453 383.238 146.187 383.238 140.755C383.238 135.323 387.636 131.176 393.15 131.176C398.665 131.176 403 135.441 403 140.755ZM385.7 140.755C385.7 145.02 388.869 148.408 393.206 148.408C397.544 148.408 400.538 145.02 400.538 140.816C400.538 136.611 397.43 133.104 393.15 133.104C388.871 133.104 385.7 136.55 385.7 140.758V140.755ZM391.625 145.777H389.397V136.2C390.276 136.024 391.508 135.905 393.092 135.905C394.909 135.905 395.732 136.2 396.433 136.606C396.962 137.014 397.372 137.776 397.372 138.708C397.372 139.762 396.552 140.576 395.378 140.927V141.045C396.316 141.395 396.843 142.096 397.136 143.379C397.43 144.839 397.605 145.424 397.84 145.774H395.436C395.14 145.424 394.965 144.549 394.672 143.437C394.494 142.386 393.91 141.92 392.677 141.92H391.622V145.774L391.625 145.777ZM391.683 140.347H392.738C393.97 140.347 394.965 139.936 394.965 138.943C394.965 138.068 394.32 137.486 392.913 137.486C392.328 137.486 391.916 137.544 391.683 137.599V140.347Z" fill="#5E1B18"/>
<path d="M180.233 68.4794C177.491 65.8212 174.789 63.2355 172.246 60.7658C171.649 60.1859 171.07 59.589 170.465 59.0187C169.575 58.1777 169.631 57.2715 170.613 56.5877C175.009 53.5283 179.282 50.2854 182.355 45.8486C185.116 41.8638 186.191 38.384 184.078 35.0806C182.091 31.973 178.986 30.8324 175.313 31.0813C171.628 31.3326 168.454 32.9081 165.434 34.8245C160.822 37.7484 156.715 41.2911 153.003 45.2856C152.389 45.9453 151.846 45.9791 151.179 45.3049C148.331 42.422 145.458 39.5608 142.576 36.7093C141.909 36.0496 141.727 35.4527 142.474 34.7375C147.336 30.0905 152.2 25.4363 158.272 22.3334C166.501 18.1263 174.362 18.8319 181.795 24.286C185.65 27.1157 189.017 30.4626 191.099 34.7761C193.377 39.4932 194.07 44.5679 192.77 49.703C192.098 52.3563 190.907 54.8792 190.068 57.4963C189.847 58.185 190.094 58.5402 190.606 59.0597C193.394 61.8992 196.467 64.4921 199.017 67.5248C202.673 71.8697 204.995 77.0363 206.181 82.5459C206.928 86.0233 207.217 89.6819 207.101 93.2415C206.836 101.385 201.47 107.823 193.559 110C183.083 112.885 173.619 110.628 165.053 104.232C158.248 99.1498 153.447 92.386 149.291 85.1147C145.672 78.7786 142.969 72.051 140.701 65.1373C140.39 64.1924 140.087 63.2234 139.973 62.2423C139.755 60.384 141.05 59.8379 142.067 61.6648C142.763 62.9165 143.192 64.3133 143.76 65.6375C148.399 76.4539 154.199 86.4824 163.779 93.7779C170.759 99.0943 178.454 100.861 186.809 97.3061C190.735 95.6338 194.257 93.3019 196.446 89.433C198.364 86.0378 198.765 82.384 198.025 78.6505C196.768 72.3095 193.568 66.9062 189.568 61.9064C188.585 60.6812 188.183 61.0993 187.409 62.136C185.934 64.1103 184.349 66.0024 182.673 68.0371C182.067 68.7718 180.9 69.1246 180.24 68.4842L180.233 68.4794ZM262.227 51.0562C260.247 39.4448 248.447 33.3455 238.556 38.0167C230.849 41.6584 223.544 46.8853 216.511 51.6241C211.724 54.8478 207.018 56.5901 201.361 54.7148C199.864 54.2195 199.214 55.203 200.206 56.3484C203.195 59.792 206.923 62.0852 211.378 63.1678C214.873 64.0185 218.323 63.7696 221.399 61.9113C226.669 58.7311 231.846 55.3891 236.984 52.0011C245.201 46.5832 254.822 41.0929 256.613 50.0655C256.984 51.931 256.858 54.1204 256.232 55.9134C254.708 60.2873 251.686 63.6246 247.671 65.9589C243.493 68.3875 239.197 68.4189 234.973 66.0532C233.58 65.2726 232.336 64.2263 231.016 63.3201C229.854 62.5226 228.733 63.5738 229.471 64.6395C229.553 64.7579 229.662 64.9053 229.755 65.0431C233.318 70.357 238.313 74.0132 243.896 76.913C251.375 80.7964 258.537 77.9666 260.999 69.7843C263.243 62.3221 263.289 57.2667 262.231 51.0562H262.227ZM189.269 14.023C192.122 18.003 195.929 22.6379 199.813 25.6997C206.317 30.8227 213.527 34.085 221.855 34.6335C230.98 35.2353 238.837 32.5312 245.116 25.7021C245.934 24.8128 245.817 24.2425 245.072 23.4861C242.467 20.8352 239.873 18.1722 237.297 15.4923C236.598 14.7649 236.062 14.7383 235.39 15.5503C234.405 16.744 233.372 17.9064 232.28 19.0059C226.416 24.9119 219.264 27.0698 211.21 25.3589C203.061 23.6263 196.266 19.2741 190.512 13.2957C189.041 11.6983 188.064 12.3435 189.269 14.023ZM224.264 10.3837L214.078 0.0337795C214.034 -0.00971789 213.964 -0.0121344 213.918 0.0337795L203.525 10.1808C203.481 10.2243 203.479 10.2943 203.525 10.3402L213.711 20.6926C213.755 20.7361 213.825 20.7385 213.871 20.6926L224.264 10.5457C224.308 10.5022 224.311 10.4321 224.264 10.3862V10.3837Z" fill="#5E1B18"/>
</g>
<defs>
<clipPath id="clip0_3_3">
<rect width="403" height="258" fill="white"/>
</clipPath>
</defs>
</svg>
